<svg width="112" height="104" viewBox="0 0 112 104" fill="none" xmlns="http://www.w3.org/2000/svg">
<path fill-rule="evenodd" clip-rule="evenodd" d="M53.533 12.9929C61.7208 12.2938 66.5771 0.67172 74.7877 1.00712C82.0378 1.30328 87.8937 8.2665 91.5624 14.5464C95.1525 20.6916 91.804 29.0009 94.8896 35.416C98.5913 43.112 110.828 46.4111 110.998 54.9545C111.159 63.0218 99.8192 66.3879 95.6434 73.2844C91.5753 80.0032 92.5188 89.4625 86.8304 94.8694C81.1495 100.269 72.4735 104.467 64.8939 102.512C56.3563 100.31 54.3665 87.1943 46.0217 84.3441C39.0612 81.9667 31.642 91.0642 24.6544 88.7682C18.165 86.636 12.8411 79.8514 11.7627 73.0874C10.609 65.8514 20.699 59.6463 18.8797 52.5493C16.5973 43.6459 -0.998743 40.7619 1.18764 31.8343C3.2724 23.3216 19.1805 29.5441 25.8893 23.9271C31.304 19.3936 27.269 7.09929 33.8303 4.50403C40.5532 1.84485 46.3323 13.6077 53.533 12.9929Z" stroke="#E5FF3D"/>
</svg>
