<svg width="12" height="12" viewBox="0 0 12 12" fill="none" xmlns="http://www.w3.org/2000/svg">
<path d="M6 0C2.6868 0 0 2.6868 0 6C0 9.3132 2.6868 12 6 12C9.3132 12 12 9.3132 12 6C12 2.6868 9.3132 0 6 0ZM4.25647 9.07031H2.7952V4.67404H4.25647V9.07031ZM3.52588 4.07373H3.51636C3.026 4.07373 2.70886 3.73618 2.70886 3.3143C2.70886 2.8829 3.03571 2.55469 3.53558 2.55469C4.03546 2.55469 4.34308 2.8829 4.3526 3.3143C4.3526 3.73618 4.03546 4.07373 3.52588 4.07373ZM9.52551 9.07031H8.06442V6.71841C8.06442 6.12735 7.85284 5.72424 7.32413 5.72424C6.92047 5.72424 6.68005 5.99615 6.5744 6.25864C6.53577 6.35257 6.52634 6.48386 6.52634 6.61523V9.07031H5.06516C5.06516 9.07031 5.08429 5.08649 5.06516 4.67404H6.52634V5.29651C6.72052 4.99695 7.06796 4.57086 7.84323 4.57086C8.80463 4.57086 9.52551 5.19919 9.52551 6.5495V9.07031Z" fill="white"/>
</svg>
