<svg width="94" height="30" viewBox="0 0 94 30" fill="none" xmlns="http://www.w3.org/2000/svg">
<path d="M45.1443 3.49849C45.9719 3.46133 46.6127 2.7603 46.5755 1.93271C46.5383 1.10512 45.8373 0.464347 45.0097 0.50151L45.1443 3.49849ZM2.02339 15.5652L0.529958 15.425L2.02339 15.5652ZM39.3351 4.66718C38.5189 4.80933 37.9726 5.58618 38.1147 6.40232C38.2569 7.21846 39.0337 7.76483 39.8499 7.62268L39.3351 4.66718ZM45.0097 0.50151C37.96 0.818075 27.3135 1.88079 18.2835 4.05546C13.7785 5.14039 9.58334 6.52336 6.4247 8.28081C3.33913 9.9976 0.822281 12.312 0.529958 15.425L3.51682 15.7055C3.66326 14.146 4.9993 12.507 7.8833 10.9023C10.6942 9.33836 14.5854 8.03183 18.9859 6.97208C27.7669 4.85738 38.2084 3.80994 45.1443 3.49849L45.0097 0.50151ZM0.529958 15.425C0.162615 19.3369 3.12369 22.0073 6.66094 23.7775C10.2844 25.5909 15.1462 26.8097 19.9704 27.6412C29.6514 29.31 39.6861 29.5 40.6894 29.5V26.5C39.773 26.5 29.9263 26.3132 20.48 24.6848C15.7405 23.8679 11.2272 22.708 8.00355 21.0947C4.69371 19.4383 3.33571 17.6341 3.51682 15.7055L0.529958 15.425ZM40.6894 29.5C41.6881 29.5 50.3241 29.4044 60.518 28.1223C70.6337 26.8501 82.6055 24.3753 90.0543 19.4545L88.4007 16.9513C81.5897 21.4508 70.2523 23.8745 60.1437 25.1458C50.1134 26.4072 41.6102 26.5 40.6894 26.5V29.5ZM90.0543 19.4545C91.9302 18.2152 93.2936 16.7554 93.4792 14.9986C93.6749 13.1457 92.5077 11.698 91.1225 10.6652C89.7041 9.6077 87.7085 8.70517 85.3995 7.93144C83.0691 7.15052 80.3248 6.47013 77.342 5.89655C65.4627 3.61227 49.2983 2.93177 39.3351 4.66718L39.8499 7.62268C49.3567 5.96678 65.1397 6.60512 76.7755 8.84258C79.6714 9.39944 82.2788 10.0497 84.4463 10.776C86.6353 11.5095 88.2839 12.2909 89.3293 13.0703C90.4078 13.8745 90.5239 14.4168 90.4958 14.6835C90.4574 15.0462 90.0898 15.8355 88.4007 16.9513L90.0543 19.4545Z" fill="#FFC802"/>
</svg>
