<svg width="2000" height="324" viewBox="0 0 2000 324" fill="none" xmlns="http://www.w3.org/2000/svg">
<path fill-rule="evenodd" clip-rule="evenodd" d="M0 0L83.3333 42C166.667 84 333.333 168 500 174C666.667 180 833.333 108 1000 78C1166.67 48 1333.33 60 1500 84C1666.67 108 1833.33 144 1916.67 162L2000 180V324H1916.67C1833.33 324 1666.67 324 1500 324C1333.33 324 1166.67 324 1000 324C833.333 324 666.667 324 500 324C333.333 324 166.667 324 83.3333 324H0V0Z" fill="#8AC7FF" fill-opacity="0.5"/>
</svg>
