<svg width="105" height="111" viewBox="0 0 105 111" fill="none" xmlns="http://www.w3.org/2000/svg">
<path fill-rule="evenodd" clip-rule="evenodd" d="M60.8433 13.8073C69.3488 12.64 74.2703 0.980334 82.8557 1.00002C90.4742 1.0175 97.7056 7.25015 101.408 13.9003C105.166 20.6493 104.103 29.1663 102.773 36.7736C101.667 43.1004 94.4654 47.4831 94.4164 53.9054C94.3598 61.3254 104.688 67.3076 102.486 74.3944C100.515 80.7373 89.4807 78.749 85.1357 83.7762C79.1184 90.7382 81.2086 103.822 73.1717 108.311C66.0767 112.274 55.9218 108.66 49.5003 103.681C42.8387 98.5165 43.3876 88.061 38.3451 81.3097C34.9593 76.7766 29.8134 74.1167 25.0895 70.9985C17.2067 65.7952 1.35579 66.0934 1.00588 56.6626C0.640279 46.8091 17.4321 45.8522 23.8794 38.3852C27.5788 34.1007 27.4793 27.7902 30.2137 22.8353C33.4085 17.0464 35.0214 8.56449 41.3689 6.69358C48.0715 4.718 53.92 14.7574 60.8433 13.8073Z" stroke="white"/>
</svg>
