<svg width="320" height="320" viewBox="0 0 320 320" fill="none" xmlns="http://www.w3.org/2000/svg">
<path d="M22.7424 159.991C22.7424 214.319 54.3149 261.269 100.097 283.518L34.6255 104.133C27.0099 121.202 22.7424 140.093 22.7424 159.991Z" fill="#8AC7FF" fill-opacity="0.5"/>
<path d="M252.653 153.065C252.653 136.102 246.56 124.355 241.334 115.211C234.376 103.905 227.855 94.3309 227.855 83.025C227.855 70.408 237.424 58.6633 250.903 58.6633C251.512 58.6633 252.089 58.7391 252.682 58.773C228.263 36.4015 195.729 22.7424 159.996 22.7424C112.046 22.7424 69.8596 47.3444 45.3177 84.6077C48.5379 84.7043 51.5727 84.7722 54.1504 84.7722C68.5068 84.7722 90.7295 83.0302 90.7295 83.0302C98.1283 82.5941 99.0006 93.4612 91.6096 94.3361C91.6096 94.3361 84.1742 95.211 75.9004 95.6446L125.883 244.314L155.919 154.23L134.535 95.6393C127.144 95.2058 120.142 94.3309 120.142 94.3309C112.746 93.8974 113.613 82.5888 121.009 83.025C121.009 83.025 143.676 84.767 157.162 84.767C171.516 84.767 193.742 83.025 193.742 83.025C201.146 82.5888 202.015 93.456 194.622 94.3309C194.622 94.3309 187.171 95.2058 178.912 95.6393L228.513 243.183L242.204 197.434C248.137 178.45 252.653 164.815 252.653 153.065Z" fill="#8AC7FF" fill-opacity="0.5"/>
<path d="M162.404 171.997L121.223 291.661C133.519 295.275 146.522 297.252 159.996 297.252C175.979 297.252 191.307 294.489 205.575 289.472C205.207 288.884 204.872 288.26 204.598 287.581L162.404 171.997Z" fill="#8AC7FF" fill-opacity="0.5"/>
<path d="M280.431 94.1403C281.021 98.5122 281.355 103.205 281.355 108.254C281.355 122.182 278.754 137.839 270.919 157.416L228.994 278.631C269.798 254.836 297.245 210.629 297.245 159.994C297.247 136.131 291.151 113.691 280.431 94.1403Z" fill="#8AC7FF" fill-opacity="0.5"/>
<path d="M159.996 0C71.7765 0 0 71.7713 0 159.991C0 248.221 71.7765 319.99 159.996 319.99C248.213 319.99 320 248.221 320 159.991C319.997 71.7713 248.213 0 159.996 0ZM159.996 312.656C75.822 312.656 7.33618 244.17 7.33618 159.991C7.33618 75.8168 75.8194 7.33618 159.996 7.33618C244.168 7.33618 312.648 75.8168 312.648 159.991C312.648 244.17 244.168 312.656 159.996 312.656Z" fill="#8AC7FF" fill-opacity="0.5"/>
</svg>
