<svg width="320" height="320" viewBox="0 0 320 320" fill="none" xmlns="http://www.w3.org/2000/svg">
<path d="M22.7092 159.758C22.7092 214.006 54.2357 260.888 99.9515 283.104L34.575 103.981C26.9705 121.026 22.7092 139.888 22.7092 159.758Z" fill="#BEE0FD"/>
<path d="M252.285 152.842C252.285 135.904 246.2 124.173 240.982 115.043C234.035 103.754 227.523 94.1934 227.523 82.9039C227.523 70.3054 237.078 58.5778 250.537 58.5778C251.145 58.5778 251.721 58.6534 252.313 58.6873C227.93 36.3484 195.444 22.7093 159.763 22.7093C111.883 22.7093 69.7578 47.2753 45.2517 84.4843C48.4672 84.5808 51.4975 84.6486 54.0715 84.6486C68.4069 84.6486 90.5972 82.9092 90.5972 82.9092C97.9853 82.4736 98.8563 93.325 91.4761 94.1986C91.4761 94.1986 84.0515 95.0722 75.7898 95.5051L125.699 243.958L155.692 154.005L134.339 95.4999C126.959 95.067 119.967 94.1934 119.967 94.1934C112.581 93.7605 113.447 82.4684 120.833 82.9039C120.833 82.9039 143.466 84.6434 156.933 84.6434C171.266 84.6434 193.459 82.9039 193.459 82.9039C200.852 82.4684 201.721 93.3197 194.338 94.1934C194.338 94.1934 186.898 95.067 178.652 95.4999L228.18 242.828L241.851 197.147C247.776 178.19 252.285 164.574 252.285 152.842Z" fill="#BEE0FD"/>
<path d="M162.167 171.746L121.047 291.236C133.324 294.845 146.309 296.819 159.763 296.819C175.723 296.819 191.028 294.06 205.275 289.05C204.908 288.463 204.574 287.84 204.3 287.162L162.167 171.746Z" fill="#BEE0FD"/>
<path d="M280.022 94.003C280.611 98.3686 280.945 103.055 280.945 108.096C280.945 122.004 278.347 137.638 270.524 157.186L228.66 278.225C269.405 254.465 296.811 210.321 296.811 159.76C296.814 135.932 290.727 113.525 280.022 94.003Z" fill="#BEE0FD"/>
<path d="M159.763 0C71.6719 0 0 71.6666 0 159.758C0 247.859 71.6719 319.523 159.763 319.523C247.851 319.523 319.533 247.859 319.533 159.758C319.531 71.6666 247.851 0 159.763 0ZM159.763 312.2C75.7114 312.2 7.32548 243.814 7.32548 159.758C7.32548 75.7062 75.7088 7.32548 159.763 7.32548C243.812 7.32548 312.192 75.7062 312.192 159.758C312.192 243.814 243.812 312.2 159.763 312.2Z" fill="#BEE0FD"/>
</svg>
